<?xml version="1.0"?>
<VTKFile type="UnstructuredGrid" version="0.1" byte_order="LittleEndian">
   <UnstructuredGrid>
      <Piece NumberOfPoints="1144" NumberOfCells="0" > 
         <Points> 
            <DataArray type="Float64" Name="Position" NumberOfComponents="3" format="ascii"> 
               -0.00460669  -0.00193719  0.048973  
               -0.00456781  -0.00200993  0.0494405  
               -0.00216439  0.00448525  0.00251426  
               -0.00139233  -0.00477747  0.0491934  
               -0.00220156  -0.00446538  0.0493789  
               0.00144515  -0.00476144  0.000519076  
               0.00384784  -0.00315499  0.0320487  
               0.00212629  0.00450561  0.0493708  
               -0.00415735  -0.00277785  0.0494292  
               0.00401917  -0.00294623  0.0490989  
               0.00426003  -0.00258575  0.048376  
               0.0044274  -0.00227261  0.0488114  
               -0.0015826  -0.00471975  0.00106305  
               -0.00200909  -0.00456826  0.000644285  
               0.000875595  -0.00491376  0.00130593  
               -2.70975e-05  0.00499733  0.0489422  
               0.000860549  0.00491524  0.0484703  
               -0.000320539  0.00496843  0.0474879  
               0.00465954  0.00178107  0.000747089  
               0.00446995  0.00219301  0.000660817  
               0.00277785  -0.00415735  0.0494309  
               -0.00471424  -0.00160076  0.0492902  
               -0.00170791  0.00468174  0.000893579  
               -0.00218173  0.00447598  0.000661621  
               0.00216488  -0.00448499  0.0410838  
               0.00293165  -0.00403113  0.0422108  
               0.00301491  -0.0039628  0.0412109  
               0.00465116  -0.0018087  0.0494652  
               0.00490393  -0.000975452  0.0493445  
               0.0031146  -0.00388099  0.0492498  
               0.00374281  -0.00328297  0.0493879  
               -0.00485825  -0.00112603  0.0418966  
               -0.00494782  0.000529817  0.0414929  
               0.00346852  0.00359053  0.000640672  
               0.00402934  0.00293383  0.000826627  
               -0.000541918  -0.00494663  0.0489253  
               -0.0018087  -0.00465116  0.0485934  
               -0.000497353  0.00495101  0.00307581  
               -0.00268402  -0.0042075  0.0406449  
               -0.0039362  -0.00304732  0.0401876  
               -0.00377174  -0.00324772  0.0419357  
               -0.00134589  0.00479156  0.0484794  
               -0.00177342  0.00466186  0.0491404  
               -0.00257441  0.00426609  0.0487159  
               0.00446538  -0.00220156  0.0493674  
               0.00375506  0.00326804  0.00145335  
               0.00390872  0.00308081  0.00831475  
               -0.00210212  -0.00451853  0.00955846  
               0.00345094  -0.00360496  0.0487281  
               0.00334747  -0.00368988  0.047679  
               0.00263182  -0.0042354  0.0482347  
               0.00492654  -0.000745812  0.000639472  
               -0.00341435  0.00363498  0.0239577  
               -0.00244597  0.00433474  0.0242105  
               -0.00167377  0.00469209  0.0219759  
               -0.00033205  0.0049673  0.0230896  
               -0.00199046  0.00457822  0.0232015  
               0.0039017  -0.00308936  0.000931061  
               0.00210912  0.00451479  0.00103012  
               -0.00465459  0.00179741  0.00292777  
               -0.00439295  0.00233707  0.00193126  
               -0.00470852  0.0016196  0.00198529  
               -0.00340348  -0.00364391  0.0462983  
               -0.00366465  -0.00337821  0.0472791  
               0.00496893  -0.000315496  0.00098358  
               0.00498864  0.000115337  0.000617708  
               -0.00184297  -0.00464077  0.0247755  
               -0.00181332  -0.00464976  0.0261498  
               -0.00269425  -0.00420203  0.0258898  
               0.00441891  0.00228851  0.0469543  
               0.00462299  0.00190157  0.0480705  
               0.0048885  0.00102629  0.0467781  
               0.00313435  0.00386477  0.000986872  
               0.00200993  -0.00456781  0.0479998  
               0.00242218  0.00434746  0.000712353  
               -0.000990233  0.00489944  0.00242109  
               -0.000471224  0.00495359  0.0493952  
               0.0020456  0.00454875  0.0362497  
               -0.00115057  -0.0048508  0.000589541  
               -0.000709477  -0.00493012  0.000799284  
               -0.000661252  0.00493487  0.00166959  
               -0.00133353  0.0047953  0.00168248  
               -0.00362814  0.00342269  0.0102447  
               -0.0043687  0.00238244  0.010863  
               0.00181565  -0.00464905  0.0486639  
               0.00118389  -0.0048407  0.0489248  
               -0.000302776  -0.00497018  0.000577366  
               0.00357428  0.00348833  0.04829  
               0.00359097  0.00346798  0.0473824  
               0.00477133  -0.00141256  0.0492505  
               0.00144964  -0.00476008  0.046665  
               0.00258462  -0.00426063  0.0472198  
               0.00277785  -0.00415735  0.0462274  
               0.00204124  0.00455107  0.000559948  
               -0.00134589  0.00479156  0.049395  
               0.00350461  -0.00356092  0.00252274  
               0.00254311  -0.00428282  0.00362288  
               0.00484535  -0.00116854  0.00133133  
               0.00498207  0.000182048  0.00184135  
               0.00289487  0.00406131  0.0493716  
               0.00471124  0.00161066  0.0490532  
               0.00417103  -0.00275225  0.000621103  
               -0.00348843  -0.00357419  0.000728813  
               -0.0031642  -0.00384028  0.000558407  
               -0.0031642  -0.00384028  0.00120854  
               0.00435081  0.00241591  0.0489187  
               0.000325151  -0.00496798  0.0491569  
               -0.000541918  -0.00494663  0.0494155  
               -0.00328297  -0.00374281  0.0489824  
               -0.00343053  -0.00362171  0.0482725  
               -0.00091689  0.00490969  0.000927513  
               -0.00389297  0.0031  0.000579026  
               0.000860549  0.00491524  0.049202  
               0.00187926  0.00462976  0.00167426  
               0.00122412  0.00482849  0.00156352  
               -0.0032683  0.00375485  0.000576398  
               -0.00360435  0.00345168  0.000731285  
               0.00301323  0.00396418  0.0466006  
               0.0045269  -0.00208648  0.0325241  
               0.00425438  -0.00259632  0.0309273  
               0.00122412  0.00482849  0.000602455  
               0.0016379  0.00470298  0.000874665  
               0.00385489  0.0031464  0.049477  
               0.00357351  0.00348927  0.0493721  
               -0.00492418  0.000769846  0.044976  
               -0.00463273  0.00186946  0.0443469  
               -0.00427384  0.00255991  0.0453163  
               -0.00280948  -0.00413139  0.000646067  
               -0.00241032  -0.0043538  0.000537489  
               0.00362748  -0.00342349  0.000621582  
               0.00297872  -0.0039925  0.000825007  
               0.0018581  -0.00463618  0.000619668  
               0.00144515  -0.00476144  0.000926498  
               -0.00496807  -0.000324195  0.0493771  
               0.00392394  0.00306226  0.0457276  
               -0.00418188  0.00273195  0.0487067  
               0.00494871  -0.000520792  0.0492639  
               0.000603286  -0.00494058  0.000660413  
               0.00241955  0.00434886  0.00489836  
               0.0025034  0.00430405  0.00345401  
               0.0031931  0.00381656  0.0037968  
               -0.00375062  0.00327345  0.0481159  
               -0.000915408  0.00490984  0.0491406  
               0.00281927  -0.00412336  0.0489452  
               -0.00212404  0.00450681  0.0267954  
               -0.00334147  0.0036948  0.0256427  
               -0.00116658  -0.00484595  0.0401972  
               -0.000329968  -0.0049675  0.0418745  
               0.00477841  0.00138923  0.000960172  
               0.00466416  0.00176587  0.00121653  
               0.00171818  0.00467862  0.0489434  
               0.00129203  0.00480789  0.0494137  
               -0.00091689  0.00490969  0.00051962  
               -0.00294623  -0.00401917  0.0493798  
               -0.00493027  -0.00070803  0.0490194  
               -0.00471424  -0.00160076  0.0486558  
               0.00124353  0.00482261  0.0422326  
               -0.00258575  -0.00426003  0.0490711  
               -0.00360496  -0.00345094  0.0494293  
               0.000373196  0.00496324  0.000559487  
               -5.70684e-05  0.00499438  0.000712726  
               0.000297996  0.00497065  0.00103067  
               0.0049292  0.000718823  0.0487318  
               -0.00499225  7.87121e-05  0.00110401  
               0.00455949  0.0020255  0.0493706  
               0.00490396  0.000975104  0.000617259  
               0.00494627  0.00054548  0.000919325  
               0.00465116  -0.0018087  0.0490358  
               -0.00460335  0.00194344  0.047883  
               -0.00360074  -0.00345608  0.0193624  
               -0.000709477  -0.00493012  0.00153217  
               -0.00209369  -0.00452304  0.00189744  
               0.00437494  -0.00237077  0.00108321  
               0.00471987  -0.00158219  0.000774727  
               -0.00459067  0.00196716  0.00104357  
               0.00491243  0.000889072  0.0477575  
               0.000134925  -0.00498671  0.0341691  
               0.000512027  -0.00494957  0.0332163  
               -0.00199814  -0.00457411  0.0356532  
               -0.00246949  -0.00432217  0.0376569  
               -0.00091887  -0.0049095  0.0368321  
               -0.00474746  -0.00149125  0.0188355  
               -0.00499139  8.74526e-05  0.0182357  
               -0.00494811  -0.000526868  0.0192139  
               0.00457846  -0.00199001  0.000574555  
               -0.00439295  0.00233707  0.000639557  
               -0.00329239  0.00373508  0.0494205  
               -0.00362087  0.00343155  0.0494498  
               0.00200993  -0.00456781  0.049328  
               -0.00217951  0.00447717  0.049395  
               -0.000645703  -0.0049364  0.00251569  
               -4.0336e-05  -0.00499603  0.00174019  
               -0.00497096  0.000294895  0.0240522  
               0.000229057  0.00497744  0.0115181  
               -0.00112259  0.00485929  0.0116898  
               0.00242218  0.00434746  0.00134788  
               -0.00439147  -0.00233984  0.0305348  
               0.00251873  0.00429585  0.0490596  
               0.00282105  0.00412189  0.000766351  
               0.00145379  0.00475883  0.00225138  
               0.00124047  -0.00482353  0.0481088  
               -0.00497969  0.000206226  0.0489112  
               -0.00381837  0.0031909  0.0470964  
               -0.00314558  0.00385556  0.0465921  
               -0.00317249  0.00383347  0.0475661  
               -0.00294504  -0.00402014  0.00900888  
               -0.00234982  0.00438614  0.0471137  
               -0.00484235  0.00117845  0.00134909  
               -0.00492481  0.000763448  0.000801445  
               -0.00294591  0.00401942  0.0492406  
               -0.0046053  0.0019398  0.0494491  
               -0.00498468  -0.000155563  0.0471633  
               -0.00482907  -0.00122222  0.0470564  
               -0.00474136  0.00151137  0.04939  
               0.000417233  0.00495891  0.0494131  
               0.00490393  -0.000975452  0.0487715  
               0.00446995  0.00219301  0.00123799  
               0.000307279  -0.00496974  0.00886136  
               0.00141583  -0.00477034  0.00862076  
               0.000484492  -0.00495228  0.0101899  
               0.00499808  1.95244e-05  0.045295  
               0.00497701  -0.000233416  0.0464976  
               0.000595915  0.00494131  0.0128374  
               0.00462908  -0.0018815  0.0475827  
               0.00470702  -0.00162458  0.0481034  
               0.00483699  -0.0011961  0.0477954  
               0.00390997  -0.00307928  0.010638  
               0.00331297  -0.00371819  0.00144961  
               0.0038697  0.00312836  0.0177215  
               0.00488709  0.00103094  0.00882651  
               0.0039017  -0.00308936  0.000521064  
               0.00385489  0.0031464  0.0490609  
               0.0041362  0.00280362  0.0493723  
               -0.000900222  -0.00491134  0.00363452  
               0.0041362  0.00280362  0.0479846  
               -0.00478488  0.00136791  0.000685958  
               -0.00482117  0.00124825  0.0473135  
               -0.00451178  0.00211475  0.0210912  
               0.00118389  -0.0048407  0.0494153  
               0.00144461  -0.00476161  0.0342436  
               0.000914298  -0.00490995  0.0145892  
               -0.00437404  -0.00237244  0.0472217  
               -0.00417664  0.00274176  0.000527436  
               -0.00475979  0.00145062  0.0462851  
               -0.00494207  0.000588188  0.049335  
               -0.00425777  -0.00258998  0.000755944  
               -0.00389718  -0.00309487  0.00108632  
               -0.00427486  -0.00255799  0.00157127  
               -0.000197069  -0.00498059  0.00616751  
               -0.00258575  -0.00426003  0.049481  
               0.00410246  -0.00284474  0.0224481  
               0.003493  -0.00357044  0.0216155  
               0.00375784  -0.00326465  0.0233444  
               0.00154409  0.00473143  0.0372383  
               0.000934891  0.00490792  0.0390462  
               0.00203304  0.00455546  0.0388986  
               0.00495057  -0.000501827  0.0487881  
               -0.0043627  -0.00239366  0.0490104  
               -0.00446039  -0.0022109  0.0482779  
               -0.00471795  -0.00158852  0.0478669  
               -0.00427562  -0.00255658  0.047835  
               0.0045076  -0.00212258  0.0284444  
               0.00483697  0.00119618  0.00170021  
               -0.00493563  -0.000653604  0.000832155  
               0.00103133  -0.00488698  0.00365727  
               -0.00352444  0.00354464  0.0182209  
               -0.00388099  -0.0031146  0.0485558  
               0.00460824  0.0019343  0.0263162  
               0.00490396  0.000975104  0.00243164  
               0.00496425  0.00036297  0.0219256  
               0.00465125  0.00180842  0.0215203  
               -0.00162051  -0.00470825  0.00441315  
               0.00105282  -0.00488046  0.000722787  
               -0.0049151  0.000862  0.00196025  
               -0.00241032  -0.0043538  0.000966192  
               0.00395503  0.00302438  0.0418706  
               -0.00425855  -0.00258851  0.0112183  
               0.00021372  -0.00497895  0.00108404  
               -0.00474288  -0.00150635  0.00348808  
               -0.00498983  0.000103292  0.00347803  
               -0.00491889  -0.000823554  0.00497269  
               0.00289487  0.00406131  0.0482934  
               -0.00486013  0.00111982  0.0490714  
               -0.00220156  -0.00446538  0.0469429  
               2.71997e-05  -0.00499732  0.0322829  
               -0.00418188  0.00273195  0.0493135  
               -0.00389035  0.00310318  0.0492262  
               0.00487176  -0.00108149  0.0389608  
               0.00224434  -0.00444252  0.00104704  
               -0.00317259  0.00383339  0.0485408  
               0.00406226  0.00289372  0.013506  
               0.00456186  0.00202106  0.0124778  
               0.00323809  0.00377964  0.0490595  
               0.000803405  0.00492087  0.000874252  
               -0.00134589  0.00479156  0.0469927  
               0.00342822  0.00362361  0.0436348  
               0.00196206  0.0045934  0.0470062  
               0.000981921  -0.00490196  0.0408806  
               -0.00491012  0.000912556  0.00651624  
               -0.00497845  0.000218788  0.0055381  
               -0.0049945  -5.58647e-05  0.0069761  
               0.00477841  0.00138923  0.000534007  
               0.00158607  0.0047187  0.00947666  
               0.00305025  0.00393379  0.00917739  
               0.00256848  0.00426926  0.00239571  
               -0.00388099  -0.0031146  0.0492428  
               0.00499116  8.97942e-05  0.0483349  
               0.000181928  0.00498208  0.00898691  
               -0.00427951  -0.0025493  0.0459901  
               -0.00490892  -0.000924706  0.0448222  
               -0.00458211  -0.00198317  0.0010801  
               -0.00291931  0.00404125  0.00080145  
               -0.00121126  0.00483239  0.00987814  
               -0.0024405  0.00433767  0.00881092  
               -0.00227396  0.00442668  0.00993404  
               0.00495418  0.000465212  0.0344007  
               0.00484315  -0.00117581  0.0355275  
               0.00497411  0.000262848  0.0358134  
               0.00490611  0.000953276  0.0264362  
               0.00484688  -0.00116349  0.0102665  
               0.0049657  0.000348244  0.00995336  
               0.00497877  0.000215575  0.0112178  
               -0.00150873  0.00474216  0.0314089  
               -6.01608e-05  0.00499407  0.0311398  
               -0.000827203  0.00491853  0.0298089  
               -0.00254215  0.00428333  0.00138348  
               -0.00235488  -0.00438343  0.00509392  
               -0.00249816  -0.00430684  0.0039926  
               -0.00417664  0.00274176  0.000942246  
               -0.00383446  0.0031713  0.00105926  
               0.0049292  0.000718823  0.0493197  
               -0.00490504  -0.000964194  0.0326201  
               -0.00470749  -0.00162302  0.0333561  
               -0.00436477  -0.0023898  0.0316985  
               0.00486273  -0.00111125  0.0376853  
               0.00471822  -0.00158763  0.0364484  
               0.00417103  -0.00275225  0.00202276  
               -0.00366284  0.00338042  0.00742812  
               -0.00315359  0.00384899  0.00830286  
               0.00194592  -0.00460203  0.0104319  
               0.00499842  -1.60279e-05  0.0172286  
               0.00492629  0.000748342  0.0186384  
               -0.0049132  -0.000881259  0.0059801  
               0.00416377  -0.00276583  0.0474769  
               0.00449125  -0.00215317  0.0480831  
               0.00486974  -0.00108816  0.0171832  
               -0.0046053  0.0019398  0.0490015  
               0.00404777  0.00291138  0.0445795  
               0.00264061  0.0042307  0.0455914  
               -0.0040174  0.00294838  0.00174273  
               -0.00268633  0.00420627  0.0417507  
               -0.00372499  0.00330468  0.0155871  
               -0.00431921  0.00247503  0.0160115  
               -0.000867716  -0.00491454  0.00995518  
               -0.0015826  -0.00471975  0.00273184  
               -0.00494207  0.000588188  0.0479497  
               -0.00256873  -0.00426912  0.0422187  
               -0.00128557  -0.00480985  0.0131814  
               -0.000793537  -0.00492184  0.0141032  
               0.00239366  -0.0043627  0.0489272  
               -0.00492565  0.00075488  0.0292331  
               -0.00467865  0.0017181  0.0291598  
               -0.00477352  0.00140536  0.0279776  
               -0.00470527  -0.00163033  0.0254095  
               -0.00413726  -0.00280233  0.0255639  
               -0.00444045  -0.0022482  0.0244864  
               -0.00316395  -0.00384049  0.0351372  
               -0.00133353  0.0047953  0.000590372  
               0.0049469  -0.0005391  0.00903289  
               -0.000292531  -0.00497119  0.00108357  
               0.00498927  -0.000108907  0.0490543  
               -0.00137142  -0.00478381  0.0463594  
               -0.00257304  -0.00426682  0.0454657  
               0.00468424  0.00169968  0.0180898  
               -0.00389297  0.0031  0.00360185  
               -0.00251221  0.00429934  0.00428689  
               -0.00389533  0.00309713  0.00480689  
               -0.00290626  0.00405196  0.0148884  
               -0.00298748  0.00398531  0.0159715  
               -0.00298432  -0.0039879  0.0477953  
               0.00323809  0.00377964  0.0494762  
               -0.00470096  0.00164453  0.0138756  
               -0.00499051  9.63224e-05  0.0134024  
               -0.00486404  0.00110692  0.0147091  
               -0.00165578  0.00469755  0.0450367  
               -0.0013338  0.00479522  0.0434398  
               -0.00274216  0.00417642  0.0443464  
               0.00218884  0.00447218  0.0340916  
               -0.00468912  -0.00168359  0.0021757  
               -0.00493929  -0.000616405  0.00185935  
               0.000325151  -0.00496798  0.0483762  
               0.00434966  0.00241805  0.00971661  
               0.00413422  0.00280603  0.0117454  
               0.00479721  0.00132724  0.0106971  
               0.00401082  0.00295639  0.00705658  
               0.00366157  0.00338195  0.00587803  
               0.00292131  0.00403961  0.00657464  
               0.00455399  0.00203578  0.0458139  
               0.00483269  0.0012103  0.0443319  
               0.00268418  -0.00420742  0.0432495  
               0.00150837  -0.00474227  0.0442183  
               0.0028021  -0.00413745  0.0448584  
               -0.00252147  0.00429438  0.0056474  
               -0.00369131  0.00334572  0.00610773  
               -0.00291931  0.00404125  0.00692363  
               0.0048283  0.00122475  0.0493796  
               0.00428714  -0.00253503  0.0405709  
               0.000409627  -0.00495966  0.0179902  
               0.0018581  -0.00463618  0.00194485  
               -0.00406721  0.00288769  0.0477336  
               -0.0043136  0.00248553  0.0481492  
               0.00459897  0.00195164  0.00206904  
               0.00372093  0.00330962  0.00239369  
               0.00126697  -0.0048155  0.019439  
               0.000108319  -0.00498933  0.0190634  
               0.00462694  0.00188856  0.0359453  
               -0.00325816  0.00376317  0.00111545  
               0.0049723  0.000281255  0.0492639  
               0.00463102  0.00187511  0.0142913  
               0.00246209  0.00432613  0.0128519  
               0.00262539  -0.00423884  0.000587789  
               0.00492719  -0.000739221  0.0198349  
               0.00496543  0.000350969  0.0206658  
               0.00497305  0.000273578  0.0195795  
               0.00273508  0.00418021  0.00182876  
               0.00282442  0.00411913  0.00124104  
               0.00490962  -0.000917641  0.0236409  
               -0.000410696  0.00495955  0.00103067  
               -0.00462421  0.00189754  0.0484787  
               0.00442779  -0.0022719  0.0453183  
               -0.00476592  -0.0014304  0.043299  
               0.000551453  0.00494569  0.0016737  
               0.000860585  -0.00491524  0.00246484  
               0.00310581  0.0038882  0.0283102  
               0.00472351  -0.00157021  0.0342113  
               0.00432194  -0.00246993  0.0349882  
               0.000905026  -0.00491086  0.0238552  
               -0.000361873  -0.00496436  0.0243629  
               0.000596583  -0.00494124  0.0249198  
               -0.000487432  0.00495199  0.000560129  
               0.00474027  -0.00151495  0.0148426  
               0.000602331  0.00494068  0.0167895  
               -0.00477935  0.00138611  0.0056243  
               -0.00480207  0.00131124  0.0201046  
               -0.00432741  0.00245969  0.0200491  
               0.00139306  0.00477725  0.00391761  
               -0.00410201  0.00284529  0.0409903  
               -0.00431646  0.00248017  0.0400807  
               0.00494102  -0.00059883  0.0363719  
               -0.00420542  -0.00268792  0.0484073  
               0.00440605  -0.00231257  0.0213072  
               0.00491254  -0.000888007  0.0217816  
               0.00485782  -0.00112745  0.0413208  
               0.00451006  -0.00211798  0.0416936  
               0.00483433  -0.00120487  0.0424319  
               -0.00494276  -0.000581128  0.0246396  
               -0.000157874  0.00498445  0.0392621  
               -0.000716337  0.00492945  0.0378041  
               0.00138662  -0.0047792  0.0325506  
               0.000865782  -0.00491473  0.0316316  
               0.00490664  0.000947913  0.004057  
               0.00437258  0.00237519  0.00280041  
               -0.0048222  -0.00124487  0.0381446  
               -0.00468931  -0.00168296  0.036924  
               0.00476638  -0.00142887  0.048777  
               0.00463972  -0.00184642  0.0485416  
               -0.00363692  -0.00341199  0.0489461  
               0.00361435  -0.00343949  0.0385319  
               0.00258965  -0.00425794  0.0025406  
               0.0018011  -0.00465347  0.00304545  
               0.00199905  -0.00457363  0.0422952  
               0.00124972  -0.00482073  0.0283902  
               0.00498927  -0.000108907  0.0494735  
               -0.00499141  -8.72135e-05  0.0331082  
               -0.00490947  -0.000919187  0.0115808  
               -0.00478923  -0.00135357  0.0134323  
               0.000864087  0.00491489  0.0449096  
               -0.000818776  0.00491936  0.0457579  
               0.000240767  0.00497629  0.0462368  
               0.000824311  -0.00491881  0.0422351  
               -0.00147564  -0.00475219  0.00568086  
               -0.00181829  -0.00464825  0.00675072  
               -0.00412875  -0.0028127  0.0334913  
               -0.00498289  -0.000173761  0.0303834  
               -0.00480972  -0.001286  0.0302712  
               -0.0049763  -0.000240629  0.0293162  
               -0.00393962  -0.00304315  0.0478472  
               0.00362499  0.00342653  0.0388543  
               0.00441334  0.00229892  0.0375086  
               0.00460183  0.00194628  0.0387191  
               -0.00146175  0.00475641  0.0256578  
               -0.0014894  0.00474802  0.0246567  
               -0.00236009  0.00438065  0.0254238  
               0.00395914  -0.00301936  0.00668188  
               0.00135289  -0.00478943  0.0157704  
               0.00186181  -0.00463505  0.0148875  
               0.00263891  -0.00423161  0.0154438  
               -0.000697804  -0.00493127  0.0114712  
               -0.00185957  -0.00463573  0.0115821  
               -0.00411828  0.00282546  0.0276076  
               0.00251873  0.00429585  0.0494761  
               -0.00493169  -0.000693599  0.033989  
               0.00312107  -0.00387567  0.00445786  
               -0.00326312  0.0037591  0.0274729  
               0.00497484  -0.000255482  0.015741  
               0.00496238  -0.000381937  0.00342949  
               -0.00412592  -0.00281614  0.0489427  
               -5.67795e-05  0.00499441  0.00208381  
               0.00494933  0.000514428  0.0305262  
               0.00205941  0.00454136  0.0446689  
               0.00131957  0.00479954  0.0439725  
               -0.000293801  0.00497106  0.0123745  
               -0.00383633  0.00316901  0.00245724  
               0.00368297  -0.00335588  0.0357199  
               -0.00360435  0.00345168  0.00138724  
               -0.0030945  0.00389748  0.0020127  
               -0.00495619  0.000444845  0.0116668  
               0.00494627  0.00054548  0.000515898  
               -0.0044117  0.00230199  0.048737  
               -0.00440469  0.00231511  0.0492253  
               0.00474807  0.00148924  0.0167909  
               0.00384571  -0.00315759  0.00461984  
               0.00341483  -0.0036346  0.0054284  
               -0.000806583  0.00492056  0.00403441  
               -0.00499742  -2.62306e-05  0.0443267  
               0.000430507  0.0049576  0.0267198  
               0.000613119  0.00493961  0.0284941  
               0.00151124  0.0047414  0.0272731  
               -0.00191497  0.00461857  0.0071687  
               -0.00117661  0.0048429  0.00612149  
               0.00189547  0.00462484  0.00296056  
               -0.00324079  0.00377742  0.00309918  
               0.000764234  -0.00492473  0.0388641  
               0.000230515  -0.0049773  0.040079  
               0.00149541  -0.0047462  0.0399189  
               -0.00362087  0.00343155  0.0490027  
               0.00379394  0.00322067  0.0401543  
               -0.00475504  0.00146628  0.0482097  
               -0.00498591  0.000143068  0.0168703  
               -0.00479604  0.00133111  0.0178902  
               -0.00463475  0.00186281  0.00675731  
               -0.00213308  0.00450199  0.0169937  
               0.000214818  0.00497884  0.0297642  
               -0.00300387  0.00397186  0.0169907  
               0.00434538  0.00242607  0.027774  
               0.00418583  0.00272456  0.0268286  
               0.00283485  0.00411057  0.0381836  
               0.00355578  0.00351086  0.0376173  
               0.0030883  -0.00390257  0.0279461  
               -0.00376077  0.00326108  0.039224  
               0.000376791  0.00496289  0.0191422  
               2.85351e-05  0.00499719  0.0177131  
               -0.00491754  -0.000837263  0.0480025  
               0.00378811  -0.00322777  0.0445836  
               0.00335707  -0.003682  0.0455597  
               -0.00206734  0.00453713  0.0426934  
               0.00492498  -0.00076174  0.00470248  
               0.00496479  0.000357461  0.00554857  
               -0.00492742  -0.000736875  0.0407646  
               -0.00090182  0.00491118  0.0280209  
               -0.00127444  0.00481323  0.0127943  
               0.00328612  0.00374022  0.0309202  
               0.00243863  0.00433866  0.0307171  
               0.00467564  -0.00172803  0.0400992  
               0.00402267  -0.00294196  0.0396826  
               -0.00399898  -0.00297082  0.0043845  
               -0.0031642  -0.00384028  0.00475288  
               -5.70684e-05  0.00499438  0.00134861  
               0.000104135  0.00498974  0.0101562  
               -0.00348843  -0.00357419  0.00229379  
               0.00375506  0.00326804  0.00333402  
               -0.000121005  -0.00498808  0.0460308  
               -0.00486287  0.00111078  0.0191247  
               -0.00496765  0.00032844  0.0202087  
               -0.000731162  0.00492799  0.0160542  
               0.00445436  0.00222219  0.00866414  
               -2.56631e-05  -0.00499747  0.0233609  
               -0.00106304  -0.00487736  0.0320558  
               0.00182162  0.00464725  0.0169553  
               0.00210108  0.00451909  0.0152813  
               0.00286751  0.00408376  0.0158551  
               -0.000289564  0.00497148  0.0252929  
               0.000794727  0.00492173  0.0251546  
               -0.00494064  -0.000602689  0.0104982  
               0.00430166  0.00250786  0.00389799  
               0.000260385  0.00497435  0.0414311  
               -0.00424862  -0.0026071  0.00680119  
               -0.00479356  -0.00133929  0.0314339  
               0.00382785  -0.00317935  0.0467244  
               -0.00170985  -0.00468115  0.010492  
               -0.00144256  0.00476223  0.0290278  
               -0.000313087  0.00496916  0.0289008  
               0.00299933  -0.00397559  0.0398849  
               -0.00124694  -0.00482157  0.0442356  
               -0.000176439  -0.00498262  0.0438949  
               0.00329368  -0.00373402  0.0247839  
               0.00421134  -0.00267683  0.0243275  
               0.00133664  0.00479436  0.0459485  
               0.00335731  0.0036818  0.0250374  
               0.00257279  0.00426696  0.025222  
               0.00313435  0.00386477  0.000545829  
               0.00219646  -0.00446811  0.0249458  
               0.00285926  -0.00409054  0.0256865  
               -0.00452823  -0.00208398  0.00463155  
               -0.00143171  -0.00476552  0.016268  
               -0.00223214  -0.00444904  0.016779  
               -0.00189208  -0.00462587  0.0153902  
               -0.00118915  0.0048391  0.0421461  
               -0.00100592  0.00489468  0.0403901  
               -0.00220683  0.00446257  0.0203433  
               0.00381781  0.00319158  0.0163753  
               -0.000399718  0.00496063  0.0444548  
               -0.00138145  -0.00478077  0.0232921  
               -0.00170466  -0.00468272  0.0218017  
               -0.00011931  -0.00498825  0.0149795  
               -0.00496552  0.000350073  0.0254715  
               -0.00160522  0.00471289  0.00473283  
               -0.000455396  0.00495515  0.00524265  
               0.000791455  0.00492205  0.00500367  
               0.00109011  0.00486915  0.00287293  
               0.00462097  -0.00190823  0.0198771  
               0.00477219  -0.00140972  0.0208291  
               -0.00390662  0.00308336  0.019334  
               0.00111151  0.00486265  0.0085861  
               0.00431881  0.00247579  0.0200314  
               0.00439117  0.0023404  0.0189245  
               0.00493976  0.000611636  0.0371733  
               0.00407133  -0.00288266  0.00790685  
               0.00457859  -0.00198975  0.00694061  
               0.00494303  0.000578404  0.0426502  
               0.00158753  -0.00471826  0.0205412  
               0.00481222  -0.00127777  0.0292085  
               0.00497306  0.0002735  0.0488097  
               0.00347775  -0.00358296  0.0337458  
               0.00204295  -0.00455016  0.0333733  
               0.00158408  0.0047193  0.0296539  
               0.00246163  0.00432637  0.0291682  
               -0.00127414  -0.00481332  0.00900437  
               0.00498927  -0.000108907  0.0475163  
               0.00492904  -0.000720492  0.0473997  
               -0.00224033  0.00444466  0.0407885  
               4.99053e-05  0.00499508  0.0217449  
               0.00177135  0.00466249  0.0247348  
               0.00168378  0.00468906  0.0257485  
               0.00492983  -0.00071244  0.0480252  
               0.00482022  -0.00125138  0.0458763  
               0.004858  -0.00112684  0.0443596  
               -0.00109526  -0.00486758  0.0270601  
               0.00395299  0.00302687  0.00475787  
               0.00462641  0.00189032  0.00470019  
               -0.00469788  0.00165469  0.00452819  
               -0.00499198  -8.1473e-05  0.0220389  
               -0.00484292  -0.00117656  0.021842  
               -0.00491557  -0.000857243  0.0207682  
               -0.00455797  0.00202835  0.0388216  
               -0.00307747  -0.00391145  0.0267687  
               0.00343853  -0.00361514  0.013938  
               0.00291844  -0.00404197  0.013045  
               -0.00297483  -0.00399569  0.0173  
               -0.00221045  -0.00446063  0.0177776  
               0.00499071  9.42744e-05  0.0413535  
               0.00343115  -0.0036212  0.0166948  
               0.00320071  -0.00381032  0.0176653  
               0.00342598  0.00362544  0.0102595  
               0.00418566  0.00272489  0.0258044  
               0.000530725  0.00494773  0.0432854  
               -0.00152331  0.00473774  0.00335005  
               -0.00224544  0.00444193  0.0181614  
               -0.00427688  0.00255423  0.0464367  
               0.00279405  0.00414406  0.0242587  
               0.00323358  0.00378334  0.0232144  
               0.00202481  0.00455986  0.0230192  
               -0.00495702  0.000436403  0.0386427  
               0.000929382  -0.00490846  0.0457634  
               -0.00471946  -0.00158355  0.0357152  
               -0.00498642  0.000137883  0.0361082  
               -0.00496951  -0.000309602  0.0370967  
               -0.000726652  -0.00492843  0.0430252  
               0.00468771  0.00168823  0.0341704  
               -0.004211  0.00267748  0.0261723  
               -0.00439715  -0.00232922  0.0145483  
               -0.00478223  -0.00137665  0.0146099  
               -0.000109763  0.00498919  0.00650299  
               -0.00436644  0.00238667  0.0322511  
               -0.00436434  0.0023906  0.0332754  
               -0.00490707  0.000943495  0.0439443  
               -0.00497969  0.000206226  0.0428723  
               0.00286185  0.00408841  0.00771134  
               0.00177183  0.00466235  0.00782127  
               0.00489352  0.00100974  0.0152131  
               0.00451125  0.00211574  0.0156645  
               -0.00410773  0.00283831  0.01362  
               -0.00279339  0.0041446  0.0195798  
               0.00234721  0.00438753  0.0142673  
               0.00380285  0.0032098  0.0145359  
               -0.00387925  0.00311672  0.00922732  
               -0.00311532  0.00388039  0.00939483  
               -0.00484662  0.00116436  0.0164104  
               -0.00498456  0.000156717  0.0153718  
               -0.00484605  -0.00116625  0.00933814  
               0.00426568  0.00257518  0.032465  
               0.00390116  0.00309002  0.0286881  
               0.00410441  0.00284235  0.0296435  
               0.00467911  0.00171657  0.028936  
               -0.00452132  0.00209691  0.0364212  
               -0.00447037  0.00219224  0.0353487  
               -0.00483729  0.00119511  0.0349527  
               -0.00364272  -0.00340492  0.0125703  
               0.0047473  -0.00149178  0.0471615  
               0.00405424  -0.00290349  0.00362402  
               -0.00486882  0.00109119  0.0105134  
               -0.00347768  -0.00358301  0.00355674  
               -0.00262827  -0.0042373  0.00288917  
               -0.00442985  0.00226804  0.00963771  
               -0.00488354  0.00104264  0.0366986  
               -0.000511108  -0.00494966  0.0281777  
               -0.00485735  0.001129  0.00891178  
               -0.00429991  0.00251114  0.00828728  
               0.00427873  -0.00255076  0.0338591  
               -0.00463472  0.00186289  0.0472426  
               -0.00468686  0.00169102  0.0313068  
               -0.00491323  0.000880996  0.030222  
               -0.00495384  0.000468645  0.0315306  
               0.0047653  -0.00143246  0.0303648  
               0.000767831  -0.00492438  0.00497096  
               -0.00437109  0.00237796  0.0233491  
               -0.00274941  0.00417255  0.0334008  
               -0.00222872  0.00445086  0.0349868  
               0.00188468  -0.00462811  0.00584718  
               0.0014554  -0.00475833  0.00758199  
               -0.00286533  0.00408556  0.0386544  
               -0.00294122  0.00402327  0.0376366  
               -0.00208296  0.00452878  0.0381675  
               0.00445656  0.00221806  0.0411219  
               0.00349284  -0.00357057  0.0269281  
               0.00404301  -0.00291718  0.0276901  
               0.000876019  -0.00491372  0.00598035  
               -0.00390967  0.00307965  0.0338322  
               -0.00437304  0.00237433  0.0475385  
               -0.00258934  0.00425811  0.0397761  
               -0.00165817  -0.00469682  0.0391277  
               0.00291044  0.00404853  0.0351759  
               0.00237538  0.00437247  0.0416769  
               -0.00235346  0.00438419  0.0323359  
               0.00437578  -0.00236919  0.0297901  
               0.00323378  0.00378318  0.0337014  
               0.00254184  0.0042835  0.0331676  
               -0.00468782  0.00168785  0.0155102  
               -0.000455046  -0.00495518  0.0257873  
               0.00469503  0.00166409  0.0233004  
               0.00420017  0.00269773  0.02325  
               0.00481417  -0.00127133  0.00592485  
               0.00465694  0.00178966  0.00609567  
               0.00458044  -0.00198631  0.0166562  
               0.00456835  -0.00200893  0.0176622  
               0.0024212  -0.00434798  0.0172991  
               0.00291311  -0.00404635  0.0188766  
               0.00346598  -0.00359261  0.0429764  
               -0.00388105  0.00311452  0.0487387  
               0.00209323  -0.00452329  0.0116965  
               -0.00463801  -0.00185207  0.00598377  
               -0.00466343  -0.00176826  0.00765363  
               0.00283467  0.00411072  0.0182076  
               0.00206084  0.0045406  0.019733  
               0.00315689  0.00384628  0.0201622  
               0.00387264  -0.00312477  0.0414405  
               -0.00146325  -0.00475595  0.0452379  
               0.0049954  -4.67415e-05  0.0403112  
               -0.000512899  -0.00494948  0.0331854  
               -0.00223137  -0.00444945  0.033409  
               -0.00152525  -0.00473715  0.03427  
               0.00468426  -0.00169958  0.0186122  
               0.00410447  -0.00284229  0.0179816  
               0.00483368  -0.00120703  0.0483388  
               0.000319509  0.00496853  0.0365101  
               -0.00490756  0.000938585  0.0212418  
               -0.00415077  0.00278586  0.0309499  
               0.00450551  -0.00212649  0.01124  
               0.00490919  -0.000921994  0.0118547  
               0.00124923  0.00482088  0.0107506  
               0.00186495  0.0046341  0.0117516  
               0.00235331  0.00438427  0.0106703  
               -0.00446059  0.00221052  0.019  
               0.00140466  0.00477373  0.031017  
               0.00204011  0.00455168  0.0319631  
               0.00362479  0.00342677  0.0190137  
               0.00437287  -0.00237463  0.00604522  
               -0.00492033  -0.000808947  0.0229389  
               -0.00113925  0.00485424  0.0176982  
               -0.00488352  -0.00104274  0.0282296  
               -0.00465094  -0.00180944  0.0275069  
               -0.00492099  -0.00080225  0.0272295  
               -0.00352416  0.00354487  0.0141501  
               -0.00346914  0.00359002  0.0129723  
               -0.00376583  -0.00325492  0.0373049  
               -0.00371745  -0.00331387  0.036015  
               0.00110817  0.00486367  0.0177591  
               -0.00479805  0.00132446  0.0245015  
               -0.0046597  0.00178056  0.0256868  
               0.00499154  -8.59011e-05  0.00789772  
               0.00476835  -0.00142237  0.00801431  
               0.00491828  -0.000829689  0.00716335  
               0.00408153  -0.00287024  0.0169261  
               0.00493586  -0.000651232  0.0334353  
               0.00347252  0.00358725  0.0298909  
               0.000538396  -0.00494697  0.0473781  
               0.00473301  0.00153889  0.00747036  
               -0.00304124  -0.00394119  0.0389535  
               0.00430308  -0.00250521  0.0191115  
               0.00467538  -0.00172887  0.00378754  
               -0.000849478  -0.00491633  0.0472765  
               0.00492089  0.00080319  0.0391848  
               0.00498838  -0.000118021  0.0382994  
               -0.00431235  0.00248786  0.0179601  
               -0.00382069  -0.00318807  0.0323635  
               -0.00332028  -0.00371219  0.0310328  
               0.00326658  0.00375626  0.0017  
               0.00269167  0.00420341  0.0371015  
               0.00492993  -0.000711471  0.0279926  
               0.0048522  -0.00114598  0.0267865  
               -0.002772  -0.00416048  0.0111892  
               -0.0049815  0.000187872  0.0230026  
               -0.00439175  -0.00233932  0.0449959  
               -0.00494073  -0.00060182  0.0161143  
               -0.00467524  -0.00172934  0.015571  
               0.00496662  0.000338942  0.0253743  
               0.00446887  -0.00219503  0.00909267  
               -0.00210252  -0.00451832  0.0322683  
               0.0010695  0.0048754  0.0319785  
               -0.00338135  -0.00366207  0.0337341  
               0.00476304  0.00143988  0.0194184  
               0.00498916  0.000110059  0.0286464  
               0.000878025  -0.00491352  0.0226883  
               0.00239643  -0.00436122  0.0232657  
               0.00291998  0.00404071  0.00295656  
               0.00308041  0.00390905  0.00228778  
               -0.0049644  0.000361488  0.0340664  
               0.00162047  0.00470826  0.0286141  
               0.00442977  0.00226818  0.0429977  
               -0.00365879  0.00338535  0.0283877  
               -0.00361455  -0.00343925  0.0106794  
               -0.00438314  0.00235542  0.0247733  
               -0.00324216  0.0037763  0.0317423  
               -0.00375788  0.00326461  0.0374589  
               -0.00494253  -0.00058354  0.0460072  
               0.00250157  -0.00430503  0.0344147  
               0.00447795  -0.00217805  0.0155966  
               -0.0040603  0.0028961  0.0431964  
               0.00255061  0.00427881  0.0401772  
               0.00382589  0.00318173  0.0242203  
               -0.00226519  -0.00443137  0.0270399  
               -0.003338  -0.00369764  0.0278138  
               -0.00247427  -0.00431962  0.0289648  
               -0.00229559  -0.00441512  0.00818236  
               -0.000524419  0.00494835  0.0135572  
               -0.00330676  0.00372328  0.0408772  
               0.00433909  0.00243784  0.034903  
               0.00404653  0.00291289  0.0339496  
               -0.00238307  0.00436836  0.0213336  
               0.0015916  0.00471702  0.039962  
               0.00119712  0.00483668  0.0409561  
               -0.00447543  0.00218276  0.0124523  
               0.0023354  0.00439385  0.0209941  
               0.00029514  -0.00497093  0.0272048  
               -0.00189307  -0.00462557  0.0309241  
               -0.00297322  -0.00399701  0.0211216  
               -0.00156206  -0.00472598  0.028029  
               0.000443914  -0.00495628  0.00771782  
               -0.00071397  -0.00492968  0.00760861  
               0.00056298  0.00494455  0.0237747  
               -0.00452169  -0.00209621  0.0412777  
               -0.00442558  -0.00227603  0.0428866  
               -0.00472137  -0.00157725  0.0237842  
               0.00449948  -0.00213777  0.0442509  
               -0.000803221  0.00492089  0.0334206  
               -0.00293323  0.00402983  0.0230492  
               -0.00379931  0.00321412  0.0230755  
               -0.00322423  0.00379101  0.0216646  
               0.00437777  -0.00236548  0.0384879  
               0.00217946  -0.00447719  0.0282058  
               0.00366252  0.0033808  0.0361382  
               -0.00201814  -0.00456342  0.0413745  
               -0.0020019  0.0045721  0.0158499  
               0.00470954  0.00161625  0.0204243  
               -0.00343895  -0.0036148  0.0438938  
               0.00440997  -0.00230523  0.0131458  
               -0.00464659  0.00182377  0.0268735  
               0.000593949  0.0049415  0.0374722  
               0.00323742  0.00378019  0.0424634  
               0.00333204  0.00370254  0.0414644  
               -0.00474215  -0.00150877  0.0346574  
               -0.00494636  -0.000544637  0.0350496  
               -0.0011613  -0.00484755  0.0196229  
               0.00493396  0.00067048  0.0161803  
               0.000704127  0.00493065  0.0226563  
               -0.00345156  -0.00360445  0.0450647  
               -0.00217805  -0.00447795  0.0445012  
               0.00260648  -0.00424895  0.0300327  
               0.00332032  0.00371216  0.0135924  
               0.00493617  -0.000648056  0.032251  
               -0.00390285  -0.00308796  0.0227552  
               -0.00261557  -0.00424409  0.0224184  
               -0.00364992  -0.00339616  0.0218276  
               -0.00457056  0.00200478  0.0414288  
               -0.00444304  -0.00224335  0.0200087  
               -0.00435585  -0.00240649  0.0210948  
               -0.00384404  -0.00315962  0.0204746  
               0.000574463  -0.00494342  0.0354656  
               -0.00352449  0.0035446  0.0455269  
               -0.00434426  0.00242816  0.00569531  
               -0.0046764  0.00172552  0.0426051  
               -0.00499351  -6.59363e-05  0.0279243  
               -0.0049488  0.000519824  0.0270966  
               0.00490724  -0.000941836  0.013174  
               0.00145126  -0.00475959  0.037129  
               0.00174335  -0.00467099  0.0358667  
               0.00235949  0.00438097  0.0433943  
               -0.00486387  0.0011075  0.0233878  
               -0.00468372  -0.00170138  0.0105042  
               0.00487432  0.00107307  0.0409865  
               0.00467323  0.00173594  0.0399745  
               -0.00242414  0.00434641  0.0129507  
               0.00441244  -0.00230062  0.0465454  
               0.00106892  -0.00487557  0.0127238  
               0.000671244  -0.00493389  0.0115011  
               -0.00070832  -0.00493024  0.0183064  
               -0.00236447  0.00437831  0.0460065  
               -0.00378938  0.00322622  0.0113488  
               0.000289553  0.00497148  0.00385996  
               -0.000391273  -0.00496146  0.021952  
               -0.00105597  0.0048795  0.00806006  
               0.00465452  -0.00179765  0.0255045  
               0.0027604  -0.00416668  0.028969  
               0.00116479  -0.00484649  0.0299171  
               0.00216767  -0.00448349  0.0137461  
               0.0049701  -0.000303558  0.0187077  
               -0.00181248  0.00465002  0.0143108  
               -3.95508e-05  -0.0049961  0.0374488  
               0.00345891  0.00359842  0.0323001  
               0.00427724  -0.00255355  0.0370278  
               0.00345724  -0.00359978  0.0301614  
               0.00284254  -0.00410426  0.0317068  
               0.00498121  0.000190759  0.0442778  
               -0.0045051  -0.00212725  0.00858114  
               -0.000653489  -0.00493564  0.0350434  
               -0.00286898  -0.00408256  0.0362231  
               -0.0046455  0.00182737  0.0376131  
               -0.0006815  0.00493288  0.0347988  
               -0.00175742  0.00466672  0.0337284  
               0.000565082  -0.00494434  0.0446429  
               -0.00454573  0.00205124  0.0168924  
               0.00324845  0.00377113  0.00480862  
               -0.00496808  0.00032405  0.0399554  
               0.00498237  0.000179011  0.00688282  
               -0.00352289  -0.00354591  0.0258826  
               -0.00367698  -0.00336318  0.024853  
               0.00341562  0.00363394  0.0121892  
               0.00200533  -0.00457027  0.0220669  
               0.00497724  -0.000231046  0.0296987  
               -0.0027372  -0.00417908  0.0248793  
               0.00277474  -0.00415901  0.0207062  
               -0.00287896  -0.00407437  0.0235604  
               0.00376301  -0.00325835  0.0194984  
               0.0036304  -0.00341994  0.0204808  
               -0.00394857  -0.00303225  0.00544341  
               0.00142085  0.00476882  0.0188739  
               -0.00318966  -0.00381939  0.0429118  
               0.00106366  -0.00487717  0.0216171  
               -0.00462887  -0.00188218  0.0125352  
               0.00469667  -0.00165867  0.0243689  
               -0.00302921  0.00395106  0.0428455  
               -0.00363317  0.00341657  0.0419797  
               -0.00276577  -0.0041638  0.0186897  
               -0.00397442  0.00300075  0.036207  
               -0.000839011  -0.00491736  0.0381669  
               0.00415066  0.002786  0.0307516  
               0.0049859  0.000143127  0.0124273  
               0.00473973  0.00151675  0.0325257  
               0.00490709  0.000943381  0.0334781  
               0.00495884  0.000417894  0.0317132  
               0.0038739  -0.00312324  0.0289501  
               -0.00389323  -0.00309968  0.0431469  
               0.00476996  0.00141707  0.0133352  
               -0.00289973  -0.00405732  0.0200025  
               -0.00490778  0.000936283  0.00787227  
               -0.0011681  0.00484549  0.0367076  
               0.00467763  -0.00172144  0.0314046  
               0.00194576  -0.00460211  0.0309651  
               -0.00475187  -0.0014767  0.039834  
               -0.00231659  -0.0044039  0.0129125  
               0.00473191  0.00154253  0.0272457  
               0.00492293  0.000782483  0.0294451  
               0.00193489  -0.00460792  0.0456979  
               -0.000754099  -0.00492573  0.0294497  
               -0.00326648  0.00375634  0.0304223  
               -0.00311181  0.00388328  0.0292502  
               -0.00400478  -0.00296375  0.00832783  
               -0.00420787  -0.00268334  0.00996842  
               0.000552382  0.0049456  0.0401227  
               0.00294412  -0.0040209  0.036698  
               -0.00217951  0.00447717  0.0371729  
               -0.00330708  0.00372302  0.0366118  
               0.00367552  -0.00336496  0.0129804  
               0.0033328  -0.00370191  0.0115638  
               -0.00443573  -0.00225703  0.0287552  
               -0.00135025  -0.00479023  0.0173913  
               -0.00491667  -0.000846082  0.0173104  
               0.00438405  -0.00235372  0.00499284  
               -0.000324977  -0.00496799  0.0161297  
               -0.00239208  0.00436355  0.0360406  
               0.00403945  -0.00292151  0.0119971  
               0.00162056  0.00470823  0.0332776  
               2.64481e-05  -0.0049974  0.0364132  
               -0.00288361  0.00407055  0.0113059  
               -0.000268126  -0.00497359  0.0312726  
               -0.00408311  -0.0028683  0.0391116  
               -0.000300033  0.00497045  0.0321322  
               0.00109079  0.00486894  0.0156248  
               -0.00297383  -0.00399652  0.0300175  
               -0.00377112  -0.00324847  0.0298266  
               0.00456491  -0.00201536  0.0228917  
               0.00249587  -0.00430807  0.00931928  
               -0.00470493  0.00163144  0.0404486  
               0.00491946  -0.000817704  0.0249751  
               0.00275986  -0.00416696  0.0355413  
               -0.00460814  -0.00193449  0.0388591  
               -0.00491898  -0.000822651  0.0390686  
               -0.00499089  9.24999e-05  0.00907943  
               -0.00388843  0.00310553  0.0296455  
               -0.00053308  -0.0049475  0.0394091  
               -0.00024051  -0.00497631  0.00507705  
               0.0010302  0.00488732  0.0352554  
               -0.00496525  -0.000352828  0.0144516  
               0.00423834  0.00262633  0.0365486  
               -0.000158248  -0.00498441  0.0201955  
               0.00472115  0.001578  0.0307672  
               0.00233286  -0.0043952  0.00813982  
               0.00447802  0.00217791  0.0242341  
               -0.0024408  -0.0043375  0.0143612  
               0.00499544  4.62911e-05  0.014044  
               0.00492569  -0.000754438  0.0311305  
               0.00150772  -0.00474247  0.0265397  
               -0.00405495  0.00290263  0.0221067  
               0.00130669  0.00480345  0.0216481  
               -0.0033681  0.00367294  0.0351134  
               -0.00321649  -0.00379737  0.00733851  
               -0.00381075  0.00320018  0.0166532  
               0.00494547  0.00055368  0.0276939  
               -0.00262691  -0.00423803  0.0060794  
               -0.00419494  -0.00270752  0.0275929  
               -0.0041515  -0.00278498  0.0265859  
               0.00367346  0.00336746  0.0274052  
               0.00175877  -0.00466631  0.0389269  
               -0.000616616  0.00493927  0.0263529  
               0.00275805  0.00416793  0.0223045  
               -0.00144492  0.00476152  0.0356456  
               -0.00415415  -0.00278175  0.0236768  
               -0.00169626  -0.00468527  0.0432756  
               0.0041737  -0.00274726  0.0431473  
               0.0038245  0.00318342  0.0215609  
               0.00258497  -0.00426044  0.0270284  
               -0.00345871  0.00359859  0.0201158  
               -0.00395  0.0030305  0.0208  
               -0.00467669  0.00172454  0.0221205  
               0.00495095  -0.000498009  0.0259232  
               -0.00106468  -0.00487686  0.0206278  
               0.000331286  -0.00496737  0.0291801  
               0.00363101  -0.0034192  0.0256969  
               -0.00486558  0.00110186  0.012894  
               -0.00490821  0.000931942  0.0325821  
               0.000693589  0.00493169  0.00735023  
               0.000163119  -0.00498393  0.0302864  
               -0.00442354  -0.00227984  0.0224686  
               -0.000625892  0.00493836  0.0208505  
               -0.00182565  0.00464602  0.0299514  
               -0.00422606  0.00264931  0.0146549  
               0.00260764  -0.00424833  0.0380673  
               0.0035855  0.00347465  0.0263168  
               -0.00358291  -0.0034778  0.018078  
               -0.00470705  -0.00162448  0.0460732  
               -0.00131249  0.00480169  0.0325283  
               0.00303738  -0.00394436  0.0103767  
               -0.00481411  -0.00127153  0.0198654  
               -0.00466588  0.0017602  0.0339847  
               -0.00430565  -0.00250039  0.0438542  
               -0.00214999  -0.00449295  0.0205404  
               -0.00365484  -0.00339016  0.0168534  
               -0.00381835  -0.00319092  0.0140847  
               -0.00430386  -0.00250374  0.0350426  
               0.0048211  0.00124848  0.0246828  
               0.00239975  -0.00435945  0.00687276  
               -0.00420653  -0.00268583  0.0185895  
               -0.00212587  -0.00450584  0.0195114  
               0.000865917  0.00491471  0.0339327  
               0.00203433  0.00455477  0.0350917  
               0.00263081  0.00423594  0.0265278  
               -0.00383111  0.00317538  0.0327591  
               -0.00466501  -0.00176305  0.0167882  
               -0.0046632  -0.00176903  0.017821  
               -0.00191928  0.00461627  0.0193851  
               -0.00423312  -0.0026361  0.0174605  
               -0.00421259  -0.0026745  0.0161838  
               -0.00341081  -0.00363789  0.0154353  
               -0.00494395  -0.000569059  0.00806911  
               0.00363766  -0.00341109  0.00962623  
               -0.00430661  -0.00249859  0.0133265  
               -0.000881804  0.00491315  0.0190068  
               -0.0017452  -0.00467043  0.0296124  
               0.00471365  0.00160271  0.0420808  
               -0.0014348  -0.00476458  0.0422446  
               0.00497664  0.000237166  0.0241541  
               -0.00122182  0.00482919  0.0387649  
               -0.000465678  -0.00495413  0.0448627  
               0.000398092  0.00496079  0.0203913  
               -0.00403106  -0.00293174  0.00293445  
               0.00318504  0.00382317  0.0171971  
               0.00499806  1.97039e-05  0.0230803  
               0.0033255  -0.00370791  0.0375981  
               -0.00411463  0.0028299  0.0383668  
               0.00119973  0.00483589  0.00618193  
               0.00349547  -0.00356841  0.00741086  
               0.00055284  -0.00494555  0.0261217  
               0.00234423  -0.00438912  0.00492609  
               0.000461784  0.00495452  0.0328121  
               0.00141365  -0.004771  0.0255248  
               -0.0024285  0.00434408  0.0278129  
               0.00330293  -0.00372643  0.00641797  
               0.00321085  -0.00380199  0.00844015  
               -0.00429553  -0.00251933  0.0380896  
               0.00495957  -0.00041045  0.0432998  
               0.00433556  -0.00244444  0.0263937  
               0.00396682  -0.00301001  0.0159222  
               0.00110671  -0.00486411  0.0170786  
               0.00485495  -0.00113691  0.00261355  
               0.00409276  -0.00285655  0.0149123  
               0.00149459  -0.00474645  0.0183118  
               -0.00383063  0.00317596  0.0445993  
               0.00228668  -0.00441989  0.0198006  
               0.00107777  0.00487289  0.0141605  
               0.00428514  0.00253876  0.0222292  
               -1.98606e-05  0.00499804  0.0149028  
               0.0034487  -0.0036068  0.0152424  
               -0.000341656  -0.00496635  0.0127466  
               -0.00383302  -0.00317304  0.0287342  
            </DataArray>
         </Points> 

         <Cells>
            <DataArray type="Int32" Name="connectivity" NumberOfComponents="1" format="ascii">
               
            </DataArray> 
            <DataArray type="Int32" Name="offsets" NumberOfComponents="1" format="ascii">
               
            </DataArray>
            <DataArray type="UInt8"  Name="types" NumberOfComponents="1" format="ascii">
               
            </DataArray>
         </Cells>
         <PointData Scalars="Rank " Vectors="DisplacementDelta Force ">
            <DataArray type="UInt32" Name="Rank" NumberOfComponents="1" format="ascii">
               0 0 0 0 0 0 0 0 0 0 0 0 0 0 0 0 0 0 0 0 0 0 0 0 0 0 0 0 0 0 0 0 0 0 0 0 0 0 0 0 0 0 0 0 0 0 0 0 0 0 0 0 0 0 0 0 0 0 0 0 0 0 0 0 0 0 0 0 0 0 0 0 0 0 0 0 0 0 0 0 0 0 0 0 0 0 0 0 0 0 0 0 0 0 0 0 0 0 0 0 0 0 0 0 0 0 0 0 0 0 0 0 0 0 0 0 0 0 0 0 0 0 0 0 0 0 0 0 0 0 0 0 0 0 0 0 0 0 0 0 0 0 0 0 0 0 0 0 0 0 0 0 0 0 0 0 0 0 0 0 0 0 0 0 0 0 0 0 0 0 0 0 0 0 0 0 0 0 0 0 0 0 0 0 0 0 0 0 0 0 0 0 0 0 0 0 0 0 0 0 0 0 0 0 0 0 0 0 0 0 0 0 0 0 0 0 0 0 0 0 0 0 0 0 0 0 0 0 0 0 0 0 0 0 0 0 0 0 0 0 0 0 0 0 0 0 0 0 0 0 0 0 0 0 0 0 0 0 0 0 0 0 0 0 0 0 0 0 0 0 0 0 0 0 0 0 0 0 0 0 0 0 0 0 0 0 0 0 0 0 0 0 0 0 0 0 0 0 0 0 0 0 0 0 0 0 0 0 0 0 0 0 0 0 0 0 0 0 0 0 0 0 0 0 0 0 0 0 0 0 0 0 0 0 0 0 0 0 0 0 0 0 0 0 0 0 0 0 0 0 0 0 0 0 0 0 0 0 0 0 0 0 0 0 0 0 0 0 0 0 0 0 0 0 0 0 0 0 0 0 0 0 0 0 0 0 0 0 0 0 0 0 0 0 0 0 0 0 0 0 0 0 0 0 0 0 0 0 0 0 0 0 0 0 0 0 0 0 0 0 0 0 0 0 0 0 0 0 0 0 0 0 0 0 0 0 0 0 0 0 0 0 0 0 0 0 0 0 0 0 0 0 0 0 0 0 0 0 0 0 0 0 0 0 0 0 0 0 0 0 0 0 0 0 0 0 0 0 0 0 0 0 0 0 0 0 0 0 0 0 0 0 0 0 0 0 0 0 0 0 0 0 0 0 0 0 0 0 0 0 0 0 0 0 0 0 0 0 0 0 0 0 0 0 0 0 0 0 0 0 0 0 0 0 0 0 0 0 0 0 0 0 0 0 0 0 0 0 0 0 0 0 0 0 0 0 0 0 0 0 0 0 0 0 0 0 0 0 0 0 0 0 0 0 0 0 0 0 0 0 0 0 0 0 0 0 0 0 0 0 0 0 0 0 0 0 0 0 0 0 0 0 0 0 0 0 0 0 0 0 0 0 0 0 0 0 0 0 0 0 0 0 0 0 0 0 0 0 0 0 0 0 0 0 0 0 0 0 0 0 0 0 0 0 0 0 0 0 0 0 0 0 0 0 0 0 0 0 0 0 0 0 0 0 0 0 0 0 0 0 0 0 0 0 0 0 0 0 0 0 0 0 0 0 0 0 0 0 0 0 0 0 0 0 0 0 0 0 0 0 0 0 0 0 0 0 0 0 0 0 0 0 0 0 0 0 0 0 0 0 0 0 0 0 0 0 0 0 0 0 0 0 0 0 0 0 0 0 0 0 0 0 0 0 0 0 0 0 0 0 0 0 0 0 0 0 0 0 0 0 0 0 0 0 0 0 0 0 0 0 0 0 0 0 0 0 0 0 0 0 0 0 0 0 0 0 0 0 0 0 0 0 0 0 0 0 0 0 0 0 0 0 0 0 0 0 0 0 0 0 0 0 0 0 0 0 0 0 0 0 0 0 0 0 0 0 0 0 0 0 0 0 0 0 0 0 0 0 0 0 0 0 0 0 0 0 0 0 0 0 0 0 0 0 0 0 0 0 0 0 0 0 0 0 0 0 0 0 0 0 0 0 0 0 0 0 0 0 0 0 0 0 0 0 0 0 0 0 0 0 0 0 0 0 0 0 0 0 0 0 0 0 0 0 0 0 0 0 0 0 0 0 0 0 0 0 0 0 0 0 0 0 0 0 0 0 0 0 0 0 0 0 0 0 0 0 0 0 0 0 0 0 0 0 0 0 0 0 0 0 0 0 0 0 0 0 0 0 0 0 0 0 0 0 0 0 0 0 0 0 0 0 0 0 0 0 0 0 0 0 0 0 0 0 0 0 0 0 0 0 0 0 0 0 0 0 0 0 0 0 0 0 0 0 0 0 0 0 0 0 0 0 0 0 0 0 0 0 0 0 0 0 0 0 0 0 0 0 0 0 0 0 0 0 0 0 0 0 0 0 0 0 0 0 0 0 0 0 0 0 0 0 0 0 0 0 0 0 0 0 0 0 0 0 0 0 0 0 0 0 0 0 0 0 0 0 0 0 0 0 0 0 0 0 0 0 0 0 0 0 0 0 0 0 0 0 0 0 0 0 0 0 0 0 0 0 0 0 0 0 0 0 0 0 0 0 0 0 0 0 0 0 0 0 0 0 0 0 0 0 0 0 0 0 0 0 0 0 0 0 0 0 0 0 
            </DataArray>
            <DataArray type="Float64" Name="DisplacementDelta" NumberOfComponents="3" format="ascii">
               0 0 0  0 0 0  0 0 0  0 0 0  0 0 0  0 0 0  0 0 0  0 0 0  0 0 0  0 0 0  0 0 0  0 0 0  0 0 0  0 0 0  0 0 0  0 0 0  0 0 0  0 0 0  0 0 0  0 0 0  0 0 0  0 0 0  0 0 0  0 0 0  0 0 0  0 0 0  0 0 0  0 0 0  0 0 0  0 0 0  0 0 0  0 0 0  0 0 0  0 0 0  0 0 0  0 0 0  0 0 0  0 0 0  0 0 0  0 0 0  0 0 0  0 0 0  0 0 0  0 0 0  0 0 0  0 0 0  0 0 0  0 0 0  0 0 0  0 0 0  0 0 0  0 0 0  0 0 0  0 0 0  0 0 0  0 0 0  0 0 0  0 0 0  0 0 0  0 0 0  0 0 0  0 0 0  0 0 0  0 0 0  0 0 0  0 0 0  0 0 0  0 0 0  0 0 0  0 0 0  0 0 0  0 0 0  0 0 0  0 0 0  0 0 0  0 0 0  0 0 0  0 0 0  0 0 0  0 0 0  0 0 0  0 0 0  0 0 0  0 0 0  0 0 0  0 0 0  0 0 0  0 0 0  0 0 0  0 0 0  0 0 0  0 0 0  0 0 0  0 0 0  0 0 0  0 0 0  0 0 0  0 0 0  0 0 0  0 0 0  0 0 0  0 0 0  0 0 0  0 0 0  0 0 0  0 0 0  0 0 0  0 0 0  0 0 0  0 0 0  0 0 0  0 0 0  0 0 0  0 0 0  0 0 0  0 0 0  0 0 0  0 0 0  0 0 0  0 0 0  0 0 0  0 0 0  0 0 0  0 0 0  0 0 0  0 0 0  0 0 0  0 0 0  0 0 0  0 0 0  0 0 0  0 0 0  0 0 0  0 0 0  0 0 0  0 0 0  0 0 0  0 0 0  0 0 0  0 0 0  0 0 0  0 0 0  0 0 0  0 0 0  0 0 0  0 0 0  0 0 0  0 0 0  0 0 0  0 0 0  0 0 0  0 0 0  0 0 0  0 0 0  0 0 0  0 0 0  0 0 0  0 0 0  0 0 0  0 0 0  0 0 0  0 0 0  0 0 0  0 0 0  0 0 0  0 0 0  0 0 0  0 0 0  0 0 0  0 0 0  0 0 0  0 0 0  0 0 0  0 0 0  0 0 0  0 0 0  0 0 0  0 0 0  0 0 0  0 0 0  0 0 0  0 0 0  0 0 0  0 0 0  0 0 0  0 0 0  0 0 0  0 0 0  0 0 0  0 0 0  0 0 0  0 0 0  0 0 0  0 0 0  0 0 0  0 0 0  0 0 0  0 0 0  0 0 0  0 0 0  0 0 0  0 0 0  0 0 0  0 0 0  0 0 0  0 0 0  0 0 0  0 0 0  0 0 0  0 0 0  0 0 0  0 0 0  0 0 0  0 0 0  0 0 0  0 0 0  0 0 0  0 0 0  0 0 0  0 0 0  0 0 0  0 0 0  0 0 0  0 0 0  0 0 0  0 0 0  0 0 0  0 0 0  0 0 0  0 0 0  0 0 0  0 0 0  0 0 0  0 0 0  0 0 0  0 0 0  0 0 0  0 0 0  0 0 0  0 0 0  0 0 0  0 0 0  0 0 0  0 0 0  0 0 0  0 0 0  0 0 0  0 0 0  0 0 0  0 0 0  0 0 0  0 0 0  0 0 0  0 0 0  0 0 0  0 0 0  0 0 0  0 0 0  0 0 0  0 0 0  0 0 0  0 0 0  0 0 0  0 0 0  0 0 0  0 0 0  0 0 0  0 0 0  0 0 0  0 0 0  0 0 0  0 0 0  0 0 0  0 0 0  0 0 0  0 0 0  0 0 0  0 0 0  0 0 0  0 0 0  0 0 0  0 0 0  0 0 0  0 0 0  0 0 0  0 0 0  0 0 0  0 0 0  0 0 0  0 0 0  0 0 0  0 0 0  0 0 0  0 0 0  0 0 0  0 0 0  0 0 0  0 0 0  0 0 0  0 0 0  0 0 0  0 0 0  0 0 0  0 0 0  0 0 0  0 0 0  0 0 0  0 0 0  0 0 0  0 0 0  0 0 0  0 0 0  0 0 0  0 0 0  0 0 0  0 0 0  0 0 0  0 0 0  0 0 0  0 0 0  0 0 0  0 0 0  0 0 0  0 0 0  0 0 0  0 0 0  0 0 0  0 0 0  0 0 0  0 0 0  0 0 0  0 0 0  0 0 0  0 0 0  0 0 0  0 0 0  0 0 0  0 0 0  0 0 0  0 0 0  0 0 0  0 0 0  0 0 0  0 0 0  0 0 0  0 0 0  0 0 0  0 0 0  0 0 0  0 0 0  0 0 0  0 0 0  0 0 0  0 0 0  0 0 0  0 0 0  0 0 0  0 0 0  0 0 0  0 0 0  0 0 0  0 0 0  0 0 0  0 0 0  0 0 0  0 0 0  0 0 0  0 0 0  0 0 0  0 0 0  0 0 0  0 0 0  0 0 0  0 0 0  0 0 0  0 0 0  0 0 0  0 0 0  0 0 0  0 0 0  0 0 0  0 0 0  0 0 0  0 0 0  0 0 0  0 0 0  0 0 0  0 0 0  0 0 0  0 0 0  0 0 0  0 0 0  0 0 0  0 0 0  0 0 0  0 0 0  0 0 0  0 0 0  0 0 0  0 0 0  0 0 0  0 0 0  0 0 0  0 0 0  0 0 0  0 0 0  0 0 0  0 0 0  0 0 0  0 0 0  0 0 0  0 0 0  0 0 0  0 0 0  0 0 0  0 0 0  0 0 0  0 0 0  0 0 0  0 0 0  0 0 0  0 0 0  0 0 0  0 0 0  0 0 0  0 0 0  0 0 0  0 0 0  0 0 0  0 0 0  0 0 0  0 0 0  0 0 0  0 0 0  0 0 0  0 0 0  0 0 0  0 0 0  0 0 0  0 0 0  0 0 0  0 0 0  0 0 0  0 0 0  0 0 0  0 0 0  0 0 0  0 0 0  0 0 0  0 0 0  0 0 0  0 0 0  0 0 0  0 0 0  0 0 0  0 0 0  0 0 0  0 0 0  0 0 0  0 0 0  0 0 0  0 0 0  0 0 0  0 0 0  0 0 0  0 0 0  0 0 0  0 0 0  0 0 0  0 0 0  0 0 0  0 0 0  0 0 0  0 0 0  0 0 0  0 0 0  0 0 0  0 0 0  0 0 0  0 0 0  0 0 0  0 0 0  0 0 0  0 0 0  0 0 0  0 0 0  0 0 0  0 0 0  0 0 0  0 0 0  0 0 0  0 0 0  0 0 0  0 0 0  0 0 0  0 0 0  0 0 0  0 0 0  0 0 0  0 0 0  0 0 0  0 0 0  0 0 0  0 0 0  0 0 0  0 0 0  0 0 0  0 0 0  0 0 0  0 0 0  0 0 0  0 0 0  0 0 0  0 0 0  0 0 0  0 0 0  0 0 0  0 0 0  0 0 0  0 0 0  0 0 0  0 0 0  0 0 0  0 0 0  0 0 0  0 0 0  0 0 0  0 0 0  0 0 0  0 0 0  0 0 0  0 0 0  0 0 0  0 0 0  0 0 0  0 0 0  0 0 0  0 0 0  0 0 0  0 0 0  0 0 0  0 0 0  0 0 0  0 0 0  0 0 0  0 0 0  0 0 0  0 0 0  0 0 0  0 0 0  0 0 0  0 0 0  0 0 0  0 0 0  0 0 0  0 0 0  0 0 0  0 0 0  0 0 0  0 0 0  0 0 0  0 0 0  0 0 0  0 0 0  0 0 0  0 0 0  0 0 0  0 0 0  0 0 0  0 0 0  0 0 0  0 0 0  0 0 0  0 0 0  0 0 0  0 0 0  0 0 0  0 0 0  0 0 0  0 0 0  0 0 0  0 0 0  0 0 0  0 0 0  0 0 0  0 0 0  0 0 0  0 0 0  0 0 0  0 0 0  0 0 0  0 0 0  0 0 0  0 0 0  0 0 0  0 0 0  0 0 0  0 0 0  0 0 0  0 0 0  0 0 0  0 0 0  0 0 0  0 0 0  0 0 0  0 0 0  0 0 0  0 0 0  0 0 0  0 0 0  0 0 0  0 0 0  0 0 0  0 0 0  0 0 0  0 0 0  0 0 0  0 0 0  0 0 0  0 0 0  0 0 0  0 0 0  0 0 0  0 0 0  0 0 0  0 0 0  0 0 0  0 0 0  0 0 0  0 0 0  0 0 0  0 0 0  0 0 0  0 0 0  0 0 0  0 0 0  0 0 0  0 0 0  0 0 0  0 0 0  0 0 0  0 0 0  0 0 0  0 0 0  0 0 0  0 0 0  0 0 0  0 0 0  0 0 0  0 0 0  0 0 0  0 0 0  0 0 0  0 0 0  0 0 0  0 0 0  0 0 0  0 0 0  0 0 0  0 0 0  0 0 0  0 0 0  0 0 0  0 0 0  0 0 0  0 0 0  0 0 0  0 0 0  0 0 0  0 0 0  0 0 0  0 0 0  0 0 0  0 0 0  0 0 0  0 0 0  0 0 0  0 0 0  0 0 0  0 0 0  0 0 0  0 0 0  0 0 0  0 0 0  0 0 0  0 0 0  0 0 0  0 0 0  0 0 0  0 0 0  0 0 0  0 0 0  0 0 0  0 0 0  0 0 0  0 0 0  0 0 0  0 0 0  0 0 0  0 0 0  0 0 0  0 0 0  0 0 0  0 0 0  0 0 0  0 0 0  0 0 0  0 0 0  0 0 0  0 0 0  0 0 0  0 0 0  0 0 0  0 0 0  0 0 0  0 0 0  0 0 0  0 0 0  0 0 0  0 0 0  0 0 0  0 0 0  0 0 0  0 0 0  0 0 0  0 0 0  0 0 0  0 0 0  0 0 0  0 0 0  0 0 0  0 0 0  0 0 0  0 0 0  0 0 0  0 0 0  0 0 0  0 0 0  0 0 0  0 0 0  0 0 0  0 0 0  0 0 0  0 0 0  0 0 0  0 0 0  0 0 0  0 0 0  0 0 0  0 0 0  0 0 0  0 0 0  0 0 0  0 0 0  0 0 0  0 0 0  0 0 0  0 0 0  0 0 0  0 0 0  0 0 0  0 0 0  0 0 0  0 0 0  0 0 0  0 0 0  0 0 0  0 0 0  0 0 0  0 0 0  0 0 0  0 0 0  0 0 0  0 0 0  0 0 0  0 0 0  0 0 0  0 0 0  0 0 0  0 0 0  0 0 0  0 0 0  0 0 0  0 0 0  0 0 0  0 0 0  0 0 0  0 0 0  0 0 0  0 0 0  0 0 0  0 0 0  0 0 0  0 0 0  0 0 0  0 0 0  0 0 0  0 0 0  0 0 0  0 0 0  0 0 0  0 0 0  0 0 0  0 0 0  0 0 0  0 0 0  0 0 0  0 0 0  0 0 0  0 0 0  0 0 0  0 0 0  0 0 0  0 0 0  0 0 0  0 0 0  0 0 0  0 0 0  0 0 0  0 0 0  0 0 0  0 0 0  0 0 0  0 0 0  0 0 0  0 0 0  0 0 0  0 0 0  0 0 0  0 0 0  0 0 0  0 0 0  0 0 0  0 0 0  0 0 0  0 0 0  0 0 0  0 0 0  0 0 0  0 0 0  0 0 0  0 0 0  0 0 0  0 0 0  0 0 0  0 0 0  0 0 0  0 0 0  0 0 0  0 0 0  0 0 0  0 0 0  0 0 0  0 0 0  0 0 0  0 0 0  0 0 0  0 0 0  0 0 0  0 0 0  0 0 0  0 0 0  0 0 0  0 0 0  0 0 0  0 0 0  0 0 0  0 0 0  0 0 0  0 0 0  0 0 0  0 0 0  0 0 0  0 0 0  0 0 0  0 0 0  0 0 0  0 0 0  0 0 0  0 0 0  0 0 0  0 0 0  0 0 0  0 0 0  0 0 0  0 0 0  0 0 0  0 0 0  0 0 0  0 0 0  0 0 0  0 0 0  0 0 0  0 0 0  0 0 0  0 0 0  0 0 0  0 0 0  0 0 0  0 0 0  0 0 0  0 0 0  0 0 0  0 0 0  0 0 0  0 0 0  0 0 0  0 0 0  0 0 0  0 0 0  0 0 0  0 0 0  0 0 0  0 0 0  0 0 0  0 0 0  0 0 0  0 0 0  0 0 0  0 0 0  0 0 0  0 0 0  0 0 0  0 0 0  0 0 0  0 0 0  0 0 0  0 0 0  0 0 0  0 0 0  0 0 0  0 0 0  0 0 0  0 0 0  0 0 0  0 0 0  0 0 0  0 0 0  0 0 0  0 0 0  0 0 0  0 0 0  0 0 0  0 0 0  0 0 0  0 0 0  0 0 0  0 0 0  0 0 0  0 0 0  0 0 0  0 0 0  0 0 0  0 0 0  0 0 0  0 0 0  0 0 0  0 0 0  0 0 0  0 0 0  0 0 0  0 0 0  0 0 0  0 0 0  0 0 0  0 0 0  0 0 0  0 0 0  0 0 0  0 0 0  0 0 0  0 0 0  0 0 0  0 0 0  0 0 0  0 0 0  0 0 0  0 0 0  0 0 0  0 0 0  0 0 0  0 0 0  0 0 0  0 0 0  0 0 0  0 0 0  0 0 0  0 0 0  0 0 0  0 0 0  0 0 0  0 0 0  0 0 0  0 0 0  0 0 0  0 0 0  0 0 0  0 0 0  0 0 0  0 0 0  0 0 0  0 0 0  0 0 0  0 0 0  0 0 0  0 0 0  0 0 0  0 0 0  0 0 0  0 0 0  0 0 0  0 0 0  0 0 0  0 0 0  0 0 0  0 0 0  0 0 0  0 0 0  0 0 0  0 0 0  0 0 0  0 0 0  0 0 0  0 0 0  0 0 0  0 0 0  0 0 0  0 0 0  0 0 0  0 0 0  0 0 0  0 0 0  0 0 0  0 0 0  0 0 0  0 0 0  0 0 0  0 0 0  0 0 0  0 0 0  0 0 0  0 0 0  0 0 0  0 0 0  0 0 0  0 0 0  0 0 0  0 0 0  0 0 0  0 0 0  0 0 0  0 0 0  0 0 0  0 0 0  0 0 0  0 0 0  0 0 0  0 0 0  0 0 0  0 0 0  0 0 0  0 0 0  0 0 0  0 0 0  0 0 0  0 0 0  0 0 0  0 0 0  0 0 0  0 0 0  0 0 0  0 0 0  0 0 0  0 0 0  0 0 0  0 0 0  0 0 0  0 0 0  0 0 0  0 0 0  0 0 0  0 0 0  0 0 0  0 0 0  0 0 0  0 0 0  0 0 0  0 0 0  0 0 0  0 0 0  0 0 0  0 0 0  0 0 0  0 0 0  0 0 0  0 0 0  0 0 0  0 0 0  0 0 0  0 0 0  0 0 0  0 0 0  0 0 0  0 0 0  0 0 0  0 0 0  0 0 0  0 0 0  0 0 0  0 0 0  0 0 0  0 0 0  0 0 0  0 0 0  0 0 0  0 0 0  0 0 0  0 0 0  0 0 0  0 0 0  0 0 0  0 0 0  0 0 0  0 0 0  0 0 0  0 0 0  0 0 0  0 0 0  0 0 0  0 0 0  0 0 0  0 0 0  0 0 0  0 0 0  0 0 0  0 0 0  0 0 0  0 0 0  0 0 0  0 0 0  0 0 0  0 0 0  0 0 0  0 0 0  
            </DataArray>
            <DataArray type="Float64" Name="Force" NumberOfComponents="3" format="ascii">
               0 0 0  0 0 0  0 0 0  0 0 0  0 0 0  0 0 0  0 0 0  0 0 0  0 0 0  0 0 0  0 0 0  0 0 0  0 0 0  0 0 0  0 0 0  0 0 0  0 0 0  0 0 0  0 0 0  0 0 0  0 0 0  0 0 0  0 0 0  0 0 0  0 0 0  0 0 0  0 0 0  0 0 0  0 0 0  0 0 0  0 0 0  0 0 0  0 0 0  0 0 0  0 0 0  0 0 0  0 0 0  0 0 0  0 0 0  0 0 0  0 0 0  0 0 0  0 0 0  0 0 0  0 0 0  0 0 0  0 0 0  0 0 0  0 0 0  0 0 0  0 0 0  0 0 0  0 0 0  0 0 0  0 0 0  0 0 0  0 0 0  0 0 0  0 0 0  0 0 0  0 0 0  0 0 0  0 0 0  0 0 0  0 0 0  0 0 0  0 0 0  0 0 0  0 0 0  0 0 0  0 0 0  0 0 0  0 0 0  0 0 0  0 0 0  0 0 0  0 0 0  0 0 0  0 0 0  0 0 0  0 0 0  0 0 0  0 0 0  0 0 0  0 0 0  0 0 0  0 0 0  0 0 0  0 0 0  0 0 0  0 0 0  0 0 0  0 0 0  0 0 0  0 0 0  0 0 0  0 0 0  0 0 0  0 0 0  0 0 0  0 0 0  0 0 0  0 0 0  0 0 0  0 0 0  0 0 0  0 0 0  0 0 0  0 0 0  0 0 0  0 0 0  0 0 0  0 0 0  0 0 0  0 0 0  0 0 0  0 0 0  0 0 0  0 0 0  0 0 0  0 0 0  0 0 0  0 0 0  0 0 0  0 0 0  0 0 0  0 0 0  0 0 0  0 0 0  0 0 0  0 0 0  0 0 0  0 0 0  0 0 0  0 0 0  0 0 0  0 0 0  0 0 0  0 0 0  0 0 0  0 0 0  0 0 0  0 0 0  0 0 0  0 0 0  0 0 0  0 0 0  0 0 0  0 0 0  0 0 0  0 0 0  0 0 0  0 0 0  0 0 0  0 0 0  0 0 0  0 0 0  0 0 0  0 0 0  0 0 0  0 0 0  0 0 0  0 0 0  0 0 0  0 0 0  0 0 0  0 0 0  0 0 0  0 0 0  0 0 0  0 0 0  0 0 0  0 0 0  0 0 0  0 0 0  0 0 0  0 0 0  0 0 0  0 0 0  0 0 0  0 0 0  0 0 0  0 0 0  0 0 0  0 0 0  0 0 0  0 0 0  0 0 0  0 0 0  0 0 0  0 0 0  0 0 0  0 0 0  0 0 0  0 0 0  0 0 0  0 0 0  0 0 0  0 0 0  0 0 0  0 0 0  0 0 0  0 0 0  0 0 0  0 0 0  0 0 0  0 0 0  0 0 0  0 0 0  0 0 0  0 0 0  0 0 0  0 0 0  0 0 0  0 0 0  0 0 0  0 0 0  0 0 0  0 0 0  0 0 0  0 0 0  0 0 0  0 0 0  0 0 0  0 0 0  0 0 0  0 0 0  0 0 0  0 0 0  0 0 0  0 0 0  0 0 0  0 0 0  0 0 0  0 0 0  0 0 0  0 0 0  0 0 0  0 0 0  0 0 0  0 0 0  0 0 0  0 0 0  0 0 0  0 0 0  0 0 0  0 0 0  0 0 0  0 0 0  0 0 0  0 0 0  0 0 0  0 0 0  0 0 0  0 0 0  0 0 0  0 0 0  0 0 0  0 0 0  0 0 0  0 0 0  0 0 0  0 0 0  0 0 0  0 0 0  0 0 0  0 0 0  0 0 0  0 0 0  0 0 0  0 0 0  0 0 0  0 0 0  0 0 0  0 0 0  0 0 0  0 0 0  0 0 0  0 0 0  0 0 0  0 0 0  0 0 0  0 0 0  0 0 0  0 0 0  0 0 0  0 0 0  0 0 0  0 0 0  0 0 0  0 0 0  0 0 0  0 0 0  0 0 0  0 0 0  0 0 0  0 0 0  0 0 0  0 0 0  0 0 0  0 0 0  0 0 0  0 0 0  0 0 0  0 0 0  0 0 0  0 0 0  0 0 0  0 0 0  0 0 0  0 0 0  0 0 0  0 0 0  0 0 0  0 0 0  0 0 0  0 0 0  0 0 0  0 0 0  0 0 0  0 0 0  0 0 0  0 0 0  0 0 0  0 0 0  0 0 0  0 0 0  0 0 0  0 0 0  0 0 0  0 0 0  0 0 0  0 0 0  0 0 0  0 0 0  0 0 0  0 0 0  0 0 0  0 0 0  0 0 0  0 0 0  0 0 0  0 0 0  0 0 0  0 0 0  0 0 0  0 0 0  0 0 0  0 0 0  0 0 0  0 0 0  0 0 0  0 0 0  0 0 0  0 0 0  0 0 0  0 0 0  0 0 0  0 0 0  0 0 0  0 0 0  0 0 0  0 0 0  0 0 0  0 0 0  0 0 0  0 0 0  0 0 0  0 0 0  0 0 0  0 0 0  0 0 0  0 0 0  0 0 0  0 0 0  0 0 0  0 0 0  0 0 0  0 0 0  0 0 0  0 0 0  0 0 0  0 0 0  0 0 0  0 0 0  0 0 0  0 0 0  0 0 0  0 0 0  0 0 0  0 0 0  0 0 0  0 0 0  0 0 0  0 0 0  0 0 0  0 0 0  0 0 0  0 0 0  0 0 0  0 0 0  0 0 0  0 0 0  0 0 0  0 0 0  0 0 0  0 0 0  0 0 0  0 0 0  0 0 0  0 0 0  0 0 0  0 0 0  0 0 0  0 0 0  0 0 0  0 0 0  0 0 0  0 0 0  0 0 0  0 0 0  0 0 0  0 0 0  0 0 0  0 0 0  0 0 0  0 0 0  0 0 0  0 0 0  0 0 0  0 0 0  0 0 0  0 0 0  0 0 0  0 0 0  0 0 0  0 0 0  0 0 0  0 0 0  0 0 0  0 0 0  0 0 0  0 0 0  0 0 0  0 0 0  0 0 0  0 0 0  0 0 0  0 0 0  0 0 0  0 0 0  0 0 0  0 0 0  0 0 0  0 0 0  0 0 0  0 0 0  0 0 0  0 0 0  0 0 0  0 0 0  0 0 0  0 0 0  0 0 0  0 0 0  0 0 0  0 0 0  0 0 0  0 0 0  0 0 0  0 0 0  0 0 0  0 0 0  0 0 0  0 0 0  0 0 0  0 0 0  0 0 0  0 0 0  0 0 0  0 0 0  0 0 0  0 0 0  0 0 0  0 0 0  0 0 0  0 0 0  0 0 0  0 0 0  0 0 0  0 0 0  0 0 0  0 0 0  0 0 0  0 0 0  0 0 0  0 0 0  0 0 0  0 0 0  0 0 0  0 0 0  0 0 0  0 0 0  0 0 0  0 0 0  0 0 0  0 0 0  0 0 0  0 0 0  0 0 0  0 0 0  0 0 0  0 0 0  0 0 0  0 0 0  0 0 0  0 0 0  0 0 0  0 0 0  0 0 0  0 0 0  0 0 0  0 0 0  0 0 0  0 0 0  0 0 0  0 0 0  0 0 0  0 0 0  0 0 0  0 0 0  0 0 0  0 0 0  0 0 0  0 0 0  0 0 0  0 0 0  0 0 0  0 0 0  0 0 0  0 0 0  0 0 0  0 0 0  0 0 0  0 0 0  0 0 0  0 0 0  0 0 0  0 0 0  0 0 0  0 0 0  0 0 0  0 0 0  0 0 0  0 0 0  0 0 0  0 0 0  0 0 0  0 0 0  0 0 0  0 0 0  0 0 0  0 0 0  0 0 0  0 0 0  0 0 0  0 0 0  0 0 0  0 0 0  0 0 0  0 0 0  0 0 0  0 0 0  0 0 0  0 0 0  0 0 0  0 0 0  0 0 0  0 0 0  0 0 0  0 0 0  0 0 0  0 0 0  0 0 0  0 0 0  0 0 0  0 0 0  0 0 0  0 0 0  0 0 0  0 0 0  0 0 0  0 0 0  0 0 0  0 0 0  0 0 0  0 0 0  0 0 0  0 0 0  0 0 0  0 0 0  0 0 0  0 0 0  0 0 0  0 0 0  0 0 0  0 0 0  0 0 0  0 0 0  0 0 0  0 0 0  0 0 0  0 0 0  0 0 0  0 0 0  0 0 0  0 0 0  0 0 0  0 0 0  0 0 0  0 0 0  0 0 0  0 0 0  0 0 0  0 0 0  0 0 0  0 0 0  0 0 0  0 0 0  0 0 0  0 0 0  0 0 0  0 0 0  0 0 0  0 0 0  0 0 0  0 0 0  0 0 0  0 0 0  0 0 0  0 0 0  0 0 0  0 0 0  0 0 0  0 0 0  0 0 0  0 0 0  0 0 0  0 0 0  0 0 0  0 0 0  0 0 0  0 0 0  0 0 0  0 0 0  0 0 0  0 0 0  0 0 0  0 0 0  0 0 0  0 0 0  0 0 0  0 0 0  0 0 0  0 0 0  0 0 0  0 0 0  0 0 0  0 0 0  0 0 0  0 0 0  0 0 0  0 0 0  0 0 0  0 0 0  0 0 0  0 0 0  0 0 0  0 0 0  0 0 0  0 0 0  0 0 0  0 0 0  0 0 0  0 0 0  0 0 0  0 0 0  0 0 0  0 0 0  0 0 0  0 0 0  0 0 0  0 0 0  0 0 0  0 0 0  0 0 0  0 0 0  0 0 0  0 0 0  0 0 0  0 0 0  0 0 0  0 0 0  0 0 0  0 0 0  0 0 0  0 0 0  0 0 0  0 0 0  0 0 0  0 0 0  0 0 0  0 0 0  0 0 0  0 0 0  0 0 0  0 0 0  0 0 0  0 0 0  0 0 0  0 0 0  0 0 0  0 0 0  0 0 0  0 0 0  0 0 0  0 0 0  0 0 0  0 0 0  0 0 0  0 0 0  0 0 0  0 0 0  0 0 0  0 0 0  0 0 0  0 0 0  0 0 0  0 0 0  0 0 0  0 0 0  0 0 0  0 0 0  0 0 0  0 0 0  0 0 0  0 0 0  0 0 0  0 0 0  0 0 0  0 0 0  0 0 0  0 0 0  0 0 0  0 0 0  0 0 0  0 0 0  0 0 0  0 0 0  0 0 0  0 0 0  0 0 0  0 0 0  0 0 0  0 0 0  0 0 0  0 0 0  0 0 0  0 0 0  0 0 0  0 0 0  0 0 0  0 0 0  0 0 0  0 0 0  0 0 0  0 0 0  0 0 0  0 0 0  0 0 0  0 0 0  0 0 0  0 0 0  0 0 0  0 0 0  0 0 0  0 0 0  0 0 0  0 0 0  0 0 0  0 0 0  0 0 0  0 0 0  0 0 0  0 0 0  0 0 0  0 0 0  0 0 0  0 0 0  0 0 0  0 0 0  0 0 0  0 0 0  0 0 0  0 0 0  0 0 0  0 0 0  0 0 0  0 0 0  0 0 0  0 0 0  0 0 0  0 0 0  0 0 0  0 0 0  0 0 0  0 0 0  0 0 0  0 0 0  0 0 0  0 0 0  0 0 0  0 0 0  0 0 0  0 0 0  0 0 0  0 0 0  0 0 0  0 0 0  0 0 0  0 0 0  0 0 0  0 0 0  0 0 0  0 0 0  0 0 0  0 0 0  0 0 0  0 0 0  0 0 0  0 0 0  0 0 0  0 0 0  0 0 0  0 0 0  0 0 0  0 0 0  0 0 0  0 0 0  0 0 0  0 0 0  0 0 0  0 0 0  0 0 0  0 0 0  0 0 0  0 0 0  0 0 0  0 0 0  0 0 0  0 0 0  0 0 0  0 0 0  0 0 0  0 0 0  0 0 0  0 0 0  0 0 0  0 0 0  0 0 0  0 0 0  0 0 0  0 0 0  0 0 0  0 0 0  0 0 0  0 0 0  0 0 0  0 0 0  0 0 0  0 0 0  0 0 0  0 0 0  0 0 0  0 0 0  0 0 0  0 0 0  0 0 0  0 0 0  0 0 0  0 0 0  0 0 0  0 0 0  0 0 0  0 0 0  0 0 0  0 0 0  0 0 0  0 0 0  0 0 0  0 0 0  0 0 0  0 0 0  0 0 0  0 0 0  0 0 0  0 0 0  0 0 0  0 0 0  0 0 0  0 0 0  0 0 0  0 0 0  0 0 0  0 0 0  0 0 0  0 0 0  0 0 0  0 0 0  0 0 0  0 0 0  0 0 0  0 0 0  0 0 0  0 0 0  0 0 0  0 0 0  0 0 0  0 0 0  0 0 0  0 0 0  0 0 0  0 0 0  0 0 0  0 0 0  0 0 0  0 0 0  0 0 0  0 0 0  0 0 0  0 0 0  0 0 0  0 0 0  0 0 0  0 0 0  0 0 0  0 0 0  0 0 0  0 0 0  0 0 0  0 0 0  0 0 0  0 0 0  0 0 0  0 0 0  0 0 0  0 0 0  0 0 0  0 0 0  0 0 0  0 0 0  0 0 0  0 0 0  0 0 0  0 0 0  0 0 0  0 0 0  0 0 0  0 0 0  0 0 0  0 0 0  0 0 0  0 0 0  0 0 0  0 0 0  0 0 0  0 0 0  0 0 0  0 0 0  0 0 0  0 0 0  0 0 0  0 0 0  0 0 0  0 0 0  0 0 0  0 0 0  0 0 0  0 0 0  0 0 0  0 0 0  0 0 0  0 0 0  0 0 0  0 0 0  0 0 0  0 0 0  0 0 0  0 0 0  0 0 0  0 0 0  0 0 0  0 0 0  0 0 0  0 0 0  0 0 0  0 0 0  0 0 0  0 0 0  0 0 0  0 0 0  0 0 0  0 0 0  0 0 0  0 0 0  0 0 0  0 0 0  0 0 0  0 0 0  0 0 0  0 0 0  0 0 0  0 0 0  0 0 0  0 0 0  0 0 0  0 0 0  0 0 0  0 0 0  0 0 0  0 0 0  0 0 0  0 0 0  0 0 0  0 0 0  0 0 0  0 0 0  0 0 0  0 0 0  0 0 0  0 0 0  0 0 0  0 0 0  0 0 0  0 0 0  0 0 0  0 0 0  0 0 0  0 0 0  0 0 0  0 0 0  0 0 0  0 0 0  0 0 0  0 0 0  0 0 0  0 0 0  0 0 0  0 0 0  0 0 0  0 0 0  0 0 0  0 0 0  0 0 0  0 0 0  0 0 0  0 0 0  0 0 0  0 0 0  0 0 0  0 0 0  0 0 0  0 0 0  0 0 0  0 0 0  0 0 0  0 0 0  0 0 0  0 0 0  0 0 0  0 0 0  0 0 0  0 0 0  0 0 0  0 0 0  0 0 0  0 0 0  0 0 0  0 0 0  0 0 0  0 0 0  0 0 0  0 0 0  0 0 0  0 0 0  0 0 0  0 0 0  0 0 0  0 0 0  0 0 0  0 0 0  0 0 0  0 0 0  0 0 0  0 0 0  0 0 0  0 0 0  0 0 0  0 0 0  0 0 0  0 0 0  0 0 0  0 0 0  0 0 0  0 0 0  0 0 0  0 0 0  0 0 0  0 0 0  0 0 0  0 0 0  0 0 0  0 0 0  0 0 0  0 0 0  0 0 0  0 0 0  0 0 0  0 0 0  0 0 0  0 0 0  0 0 0  0 0 0  0 0 0  0 0 0  0 0 0  0 0 0  0 0 0  0 0 0  0 0 0  0 0 0  0 0 0  0 0 0  0 0 0  
            </DataArray>
         </PointData> 
      </Piece>
   </UnstructuredGrid> 
</VTKFile>
